<svg width="170" height="34" viewBox="0 0 170 34" fill="none" xmlns="http://www.w3.org/2000/svg">
<path d="M-3.01898e-05 26.748V1.98005H16.632V6.80405H6.26397V12.672H15.3V17.496H6.26397V26.748H-3.01898e-05ZM25.7521 27.036C24.5281 27.036 23.5441 26.88 22.8001 26.568C22.0561 26.256 21.4921 25.8 21.1081 25.2C20.7241 24.6 20.4721 23.856 20.3521 22.968C20.2321 22.08 20.1721 21.048 20.1721 19.872V8.38805H25.9321V18.108C25.9321 19.092 25.9561 19.872 26.0041 20.448C26.0761 21 26.1961 21.408 26.3641 21.672C26.5321 21.936 26.7841 22.104 27.1201 22.176C27.4561 22.224 27.9121 22.248 28.4881 22.248C29.1121 22.248 29.6041 22.188 29.9641 22.068C30.3481 21.924 30.6241 21.696 30.7921 21.384C30.9601 21.072 31.0681 20.64 31.1161 20.088C31.1881 19.512 31.2241 18.804 31.2241 17.964V8.38805H37.0201V26.748H31.5121L31.3681 24.516H31.0441C30.7081 25.14 30.2761 25.644 29.7481 26.028C29.2201 26.388 28.6201 26.64 27.9481 26.784C27.2761 26.952 26.5441 27.036 25.7521 27.036ZM41.4416 26.748V8.38805H46.9136L47.0576 11.52H47.3816C47.7176 10.632 48.1376 9.93605 48.6416 9.43205C49.1696 8.92805 49.8056 8.58005 50.5496 8.38805C51.2936 8.19605 52.1576 8.10005 53.1416 8.10005V13.392C51.6296 13.392 50.4416 13.584 49.5776 13.968C48.7136 14.352 48.1016 15.012 47.7416 15.948C47.3816 16.86 47.2016 18.144 47.2016 19.8V26.748H41.4416ZM56.2072 26.748V8.38805H61.6792L61.8232 10.62H62.1472C62.5072 9.99605 62.9512 9.50405 63.4792 9.14405C64.0072 8.76005 64.6072 8.49605 65.2792 8.35205C65.9512 8.18405 66.6832 8.10005 67.4752 8.10005C68.6992 8.10005 69.6712 8.25605 70.3912 8.56805C71.1352 8.88005 71.6992 9.33605 72.0832 9.93605C72.4672 10.536 72.7192 11.28 72.8392 12.168C72.9832 13.056 73.0552 14.088 73.0552 15.264V26.748H67.2592V17.028C67.2592 16.044 67.2352 15.276 67.1872 14.724C67.1392 14.148 67.0312 13.728 66.8632 13.464C66.6952 13.2 66.4312 13.044 66.0712 12.996C65.7352 12.924 65.2792 12.888 64.7032 12.888C64.1032 12.888 63.6112 12.96 63.2272 13.104C62.8672 13.224 62.5912 13.44 62.3992 13.752C62.2312 14.064 62.1112 14.508 62.0392 15.084C61.9912 15.636 61.9672 16.332 61.9672 17.172V26.748H56.2072ZM77.4048 4.64405V4.57764e-05H83.3448V4.64405H77.4048ZM77.4768 26.748V8.38805H83.3088V26.748H77.4768ZM97.1735 27.036C96.2135 27.036 95.1695 27.012 94.0415 26.964C92.9375 26.916 91.8455 26.844 90.7655 26.748C89.7095 26.652 88.7615 26.556 87.9215 26.46V21.816C88.8095 21.888 89.6975 21.96 90.5855 22.032C91.4975 22.104 92.3615 22.152 93.1775 22.176C93.9935 22.2 94.6775 22.212 95.2295 22.212C96.3815 22.212 97.2575 22.176 97.8575 22.104C98.4575 22.008 98.9015 21.876 99.1895 21.708C99.3815 21.54 99.5135 21.36 99.5855 21.168C99.6815 20.976 99.7415 20.748 99.7655 20.484C99.7895 20.22 99.8015 19.92 99.8015 19.584C99.8015 19.08 99.7655 18.684 99.6935 18.396C99.6455 18.084 99.5255 17.844 99.3335 17.676C99.1655 17.508 98.9015 17.388 98.5415 17.316C98.1815 17.22 97.7135 17.136 97.1375 17.064L92.0615 16.416C91.0775 16.296 90.2735 16.056 89.6495 15.696C89.0255 15.312 88.5335 14.808 88.1735 14.184C87.8135 13.56 87.5615 12.828 87.4175 11.988C87.2735 11.124 87.2015 10.164 87.2015 9.10805C87.2015 7.47605 87.4415 6.18005 87.9215 5.22005C88.4015 4.23604 89.0615 3.49205 89.9015 2.98805C90.7655 2.46005 91.7615 2.11205 92.8895 1.94405C94.0415 1.77605 95.2895 1.69205 96.6335 1.69205C97.5935 1.69205 98.5895 1.72805 99.6215 1.80005C100.654 1.84805 101.626 1.93205 102.538 2.05205C103.45 2.14805 104.206 2.26805 104.806 2.41204V6.94805C104.206 6.85205 103.498 6.78005 102.682 6.73204C101.89 6.66005 101.062 6.61205 100.198 6.58805C99.3335 6.54005 98.5175 6.51605 97.7495 6.51605C96.8135 6.51605 96.0695 6.55205 95.5175 6.62405C94.9655 6.67205 94.5335 6.78005 94.2215 6.94805C93.8855 7.14005 93.6695 7.39205 93.5735 7.70405C93.5015 8.01605 93.4655 8.41205 93.4655 8.89205C93.4655 9.49205 93.5135 9.96005 93.6095 10.296C93.7055 10.608 93.9215 10.824 94.2575 10.944C94.5935 11.064 95.1095 11.172 95.8055 11.268L100.738 11.844C101.41 11.916 102.022 12.036 102.574 12.204C103.15 12.372 103.666 12.636 104.122 12.996C104.602 13.356 104.998 13.872 105.31 14.544C105.478 14.856 105.61 15.24 105.706 15.696C105.802 16.128 105.886 16.632 105.958 17.208C106.03 17.784 106.066 18.432 106.066 19.152C106.066 20.568 105.922 21.768 105.634 22.752C105.346 23.712 104.938 24.48 104.41 25.056C103.882 25.608 103.246 26.04 102.502 26.352C101.758 26.64 100.93 26.82 100.018 26.892C99.1295 26.988 98.1815 27.036 97.1735 27.036ZM109.961 26.748V4.57764e-05H115.721V10.512H116.045C116.405 9.91205 116.837 9.44405 117.341 9.10805C117.869 8.74805 118.457 8.49605 119.105 8.35205C119.753 8.20805 120.461 8.13605 121.229 8.13605C122.453 8.13605 123.425 8.29205 124.145 8.60405C124.889 8.89205 125.453 9.33605 125.837 9.93605C126.221 10.536 126.473 11.28 126.593 12.168C126.737 13.056 126.809 14.088 126.809 15.264V26.748H121.013V17.028C121.013 16.044 120.989 15.276 120.941 14.724C120.893 14.148 120.785 13.728 120.617 13.464C120.449 13.2 120.185 13.044 119.825 12.996C119.489 12.924 119.033 12.888 118.457 12.888C117.857 12.888 117.365 12.96 116.981 13.104C116.621 13.224 116.345 13.44 116.153 13.752C115.985 14.064 115.865 14.508 115.793 15.084C115.745 15.636 115.721 16.332 115.721 17.172V26.748H109.961ZM139.295 27.036C137.663 27.036 136.307 26.94 135.227 26.748C134.147 26.556 133.295 26.244 132.671 25.812C132.047 25.38 131.591 24.804 131.303 24.084C131.015 23.364 130.823 22.464 130.727 21.384C130.655 20.304 130.619 19.02 130.619 17.532C130.619 16.044 130.655 14.772 130.727 13.716C130.823 12.636 131.015 11.736 131.303 11.016C131.591 10.296 132.047 9.72005 132.671 9.28805C133.295 8.85605 134.147 8.55605 135.227 8.38805C136.307 8.19605 137.663 8.10005 139.295 8.10005C140.951 8.10005 142.319 8.19605 143.399 8.38805C144.479 8.55605 145.331 8.85605 145.955 9.28805C146.579 9.72005 147.035 10.296 147.323 11.016C147.611 11.736 147.791 12.636 147.863 13.716C147.959 14.772 148.007 16.044 148.007 17.532C148.007 19.02 147.959 20.304 147.863 21.384C147.791 22.464 147.611 23.364 147.323 24.084C147.035 24.804 146.579 25.38 145.955 25.812C145.331 26.244 144.479 26.556 143.399 26.748C142.319 26.94 140.951 27.036 139.295 27.036ZM139.295 22.644C140.015 22.644 140.579 22.596 140.987 22.5C141.395 22.404 141.683 22.188 141.851 21.852C142.019 21.516 142.115 21 142.139 20.304C142.187 19.608 142.211 18.684 142.211 17.532C142.211 16.38 142.187 15.468 142.139 14.796C142.115 14.124 142.019 13.62 141.851 13.284C141.683 12.948 141.395 12.732 140.987 12.636C140.579 12.54 140.015 12.492 139.295 12.492C138.575 12.492 138.011 12.54 137.603 12.636C137.219 12.732 136.943 12.948 136.775 13.284C136.607 13.62 136.499 14.124 136.451 14.796C136.427 15.468 136.415 16.38 136.415 17.532C136.415 18.684 136.427 19.608 136.451 20.304C136.499 21 136.607 21.516 136.775 21.852C136.943 22.188 137.219 22.404 137.603 22.5C138.011 22.596 138.575 22.644 139.295 22.644ZM151.867 33.912V8.38805H157.339L157.483 10.62H157.807C158.191 9.92405 158.647 9.39605 159.175 9.03605C159.727 8.67605 160.339 8.43605 161.011 8.31605C161.683 8.17205 162.355 8.10005 163.027 8.10005C164.107 8.10005 165.019 8.24405 165.763 8.53205C166.531 8.82005 167.155 9.32405 167.635 10.044C168.139 10.74 168.499 11.7 168.715 12.924C168.955 14.148 169.075 15.684 169.075 17.532C169.075 19.356 168.955 20.88 168.715 22.104C168.499 23.328 168.151 24.3 167.671 25.02C167.191 25.74 166.567 26.256 165.799 26.568C165.055 26.88 164.143 27.036 163.063 27.036C162.367 27.036 161.695 26.976 161.047 26.856C160.399 26.736 159.811 26.52 159.283 26.208C158.779 25.872 158.335 25.404 157.951 24.804H157.627V33.912H151.867ZM160.435 22.284C161.083 22.284 161.599 22.236 161.983 22.14C162.367 22.044 162.643 21.852 162.811 21.564C163.003 21.252 163.123 20.784 163.171 20.16C163.243 19.536 163.279 18.672 163.279 17.568C163.279 16.464 163.243 15.6 163.171 14.976C163.123 14.328 163.003 13.86 162.811 13.572C162.643 13.26 162.367 13.068 161.983 12.996C161.599 12.9 161.083 12.852 160.435 12.852C159.739 12.852 159.199 12.948 158.815 13.14C158.455 13.308 158.179 13.608 157.987 14.04C157.843 14.424 157.747 14.916 157.699 15.516C157.651 16.092 157.627 16.776 157.627 17.568C157.627 18.384 157.651 19.08 157.699 19.656C157.747 20.232 157.831 20.688 157.951 21.024C158.143 21.504 158.431 21.84 158.815 22.032C159.199 22.2 159.739 22.284 160.435 22.284Z" fill="white"/>
</svg>
